<?xml version="1.0" encoding="UTF-8" standalone="no"?>
<!-- Created with Inkscape (http://www.inkscape.org/) -->

<svg
   xmlns:dc="http://purl.org/dc/elements/1.1/"
   xmlns:cc="http://creativecommons.org/ns#"
   xmlns:rdf="http://www.w3.org/1999/02/22-rdf-syntax-ns#"
   xmlns:svg="http://www.w3.org/2000/svg"
   xmlns="http://www.w3.org/2000/svg"
   xmlns:sodipodi="http://sodipodi.sourceforge.net/DTD/sodipodi-0.dtd"
   xmlns:inkscape="http://www.inkscape.org/namespaces/inkscape"
   width="512"
   height="512"
   viewBox="0 0 135.46666 135.46666"
   version="1.1"
   id="svg8"
   inkscape:version="0.92.3 (2405546, 2018-03-11)"
   sodipodi:docname="logo-sota.svg"
   inkscape:export-filename="/home/user/Work/state-of-the-art/state-of-the-art.io/assets/images/logo-sota.png"
   inkscape:export-xdpi="96"
   inkscape:export-ydpi="96">
  <defs
     id="defs2" />
  <sodipodi:namedview
     id="base"
     pagecolor="#ffffff"
     bordercolor="#666666"
     borderopacity="1.0"
     inkscape:pageopacity="0.0"
     inkscape:pageshadow="2"
     inkscape:zoom="0.7"
     inkscape:cx="104.81788"
     inkscape:cy="451.2141"
     inkscape:document-units="mm"
     inkscape:current-layer="svg8"
     showgrid="false"
     units="px"
     inkscape:window-width="1920"
     inkscape:window-height="1055"
     inkscape:window-x="0"
     inkscape:window-y="25"
     inkscape:window-maximized="1"
     inkscape:snap-object-midpoints="false" />
  <metadata
     id="metadata5">
    <rdf:RDF>
      <cc:Work
         rdf:about="">
        <dc:format>image/svg+xml</dc:format>
        <dc:type
           rdf:resource="http://purl.org/dc/dcmitype/StillImage" />
        <dc:title></dc:title>
      </cc:Work>
    </rdf:RDF>
  </metadata>
  <g
     aria-label="SOTA"
     style="font-style:normal;font-weight:normal;font-size:10.58333302px;line-height:1.25;font-family:sans-serif;letter-spacing:0px;word-spacing:0px;fill:#000000;fill-opacity:1;stroke:none;stroke-width:0.15903658"
     id="text901"
     transform="matrix(1.6592683,0,0,1.6680698,-70.657537,-44.637105)">
    <path
       d="m 91.176893,66.39541 q 0,4.409723 -3.439584,7.584723 -3.351389,3.108854 -7.783159,3.108854 -2.800174,0 -5.071181,-1.411111 -2.337153,-1.455209 -3.417535,-3.96875 -0.727604,-1.631597 -0.727604,-3.549827 0,-4.343576 3.439583,-7.562673 3.373438,-3.152952 7.761112,-3.152952 3.836458,0 6.526389,2.601736 2.711979,2.579688 2.711979,6.35 z m -3.329341,1.036285 q 0,-3.064757 -1.940277,-5.291667 -2.028473,-2.315104 -5.049132,-2.315104 -2.976563,0 -5.049132,2.337153 -1.962327,2.22691 -1.962327,5.269618 0,3.064757 1.962327,5.269618 2.050521,2.293056 5.07118,2.293056 2.976563,0 5.005035,-2.315104 1.962326,-2.22691 1.962326,-5.24757 z"
       style="font-style:normal;font-variant:normal;font-weight:normal;font-stretch:normal;font-size:22.57777786px;font-family:'Anime Ace v02';-inkscape-font-specification:'Anime Ace v02';text-align:center;writing-mode:lr-tb;direction:ltr;text-anchor:middle;stroke:#ffffff;stroke-width:0.30054158;stroke-miterlimit:4;stroke-dasharray:none;stroke-opacity:1"
       id="path905"
       inkscape:connector-curvature="0" />
    <path
       d="m 90.2288,61.147841 q -0.176389,2.513542 -0.176389,4.7625 0,4.387674 0.551216,7.827257 0.110243,0.529167 0.264583,1.543403 0.0441,0.352778 0.0441,0.485069 0,0.418924 -0.683507,0.771702 -0.595312,0.30868 -1.190625,0.30868 -0.683507,0 -0.79375,-0.440972 -0.08819,-0.374826 -0.110243,-1.036285 0,-1.036285 0,-1.036285 -0.264583,-4.718402 -0.352778,-12.677951 0.286632,0 -0.08819,0.132292 -0.220486,0.06615 -0.94809,0.264583 -0.705556,0.176389 -0.859896,0.220486 -1.874132,0.661458 -2.116667,0.661458 -0.661458,0 -1.058333,-0.639409 -0.330729,-0.551216 -0.330729,-1.256771 0,-1.212674 0.970138,-1.631597 3.704167,-1.565452 8.025695,-1.565452 2.006424,0 2.711979,0.154341 0.859896,0.198437 1.499306,0.661458 0.79375,0.573264 0.79375,1.344965 0,0.771702 -1.896181,0.926042 -1.43316,0.06615 -4.255382,0.220486 z"
       style="font-style:normal;font-variant:normal;font-weight:normal;font-stretch:normal;font-size:22.57777786px;font-family:'Anime Ace v02';-inkscape-font-specification:'Anime Ace v02';text-align:center;writing-mode:lr-tb;direction:ltr;text-anchor:middle;stroke:#ffffff;stroke-width:0.30054158;stroke-miterlimit:4;stroke-dasharray:none;stroke-opacity:1"
       id="path907"
       inkscape:connector-curvature="0" />
    <path
       d="m 104.89113,74.707737 q 0,0.595312 -0.61736,1.080382 -0.59532,0.485069 -1.23472,0.485069 -0.57327,0 -1.08039,-1.080382 -0.24253,-0.639409 -0.79375,-1.89618 -4.189233,1.014236 -10.451039,2.160764 -0.771701,1.852083 -1.367014,1.852083 -0.617361,0 -1.190625,-0.727604 -0.573263,-0.749653 -0.573263,-1.411111 0,-0.308681 0.573263,-1.212674 0.286632,-0.440972 0.837848,-1.367014 1.874132,-3.241146 4.850694,-11.156597 0.463021,-1.212674 0.881945,-2.469445 0.396875,-1.168576 1.719791,-1.168576 0.727604,0 1.212674,1.080382 0.264583,0.837847 0.837847,2.469444 2.381249,6.327952 5.005039,10.781771 0.44097,0.683507 1.23472,2.07257 0.15434,0.330729 0.15434,0.507118 z m -4.938891,-4.255382 q -1.653645,-3.990799 -3.682118,-8.643056 -1.058333,2.491493 -2.160763,5.313716 l -2.07257,5.335764 q 4.431771,-0.705556 7.915451,-2.006424 z"
       style="font-style:normal;font-variant:normal;font-weight:normal;font-stretch:normal;font-size:22.57777786px;font-family:'Anime Ace v02';-inkscape-font-specification:'Anime Ace v02';text-align:center;writing-mode:lr-tb;direction:ltr;text-anchor:middle;stroke:#ffffff;stroke-width:0.30054158;stroke-miterlimit:4;stroke-dasharray:none;stroke-opacity:1"
       id="path909"
       inkscape:connector-curvature="0" />
    <path
       d="m 66.989566,76.912598 q -1.146528,0 -1.852083,-0.286632 -0.771702,-0.308681 -1.499306,-1.102431 -1.719792,-1.874131 -1.719792,-3.902604 0,-1.036284 0.573264,-1.036284 0.48507,0 0.926042,0.551215 0.220486,0.396875 0.771701,1.190625 1.631598,1.962326 4.982987,1.962326 2.138715,0 3.880555,-0.859896 2.006424,-0.970138 2.711979,-2.778125 0.242535,-0.617361 0.242535,-1.036284 0,-0.881945 -2.116667,-1.322917 -1.367014,-0.264583 -4.167187,-0.440972 -1.300868,-0.08819 -2.844271,-0.15434 l -2.888368,-0.132292 q -1.830035,-0.08819 -1.830035,-1.984375 0,-0.330729 0.06615,-0.48507 0.573264,-1.433159 1.874132,-2.910416 4.189236,-4.7625 10.517188,-4.7625 0.705555,0 0.992187,0.15434 0.396875,0.220486 0.418924,0.837847 0,0.352778 0.220486,1.344965 l 0.132291,0.727605 q 0.06615,0.352777 0.06615,0.485069 0,0.463021 -0.771701,0.970139 -0.749653,0.507118 -1.27882,0.507118 -0.396875,0 -0.573263,-0.903993 -0.176389,-0.926042 -0.926042,-0.926042 -4.343577,0 -6.83507,3.175 -0.418923,0.529167 -0.418923,0.749653 0,0.176389 0.617361,0.242535 0.396875,0.0441 1.146528,0 0.396875,-0.02205 0.705555,-0.02205 h 0.08819 q 2.028472,0 7.650868,0.529167 1.785937,0.176389 2.888368,0.463021 0.771701,0.198437 0.771701,1.74184 0,0.595313 -0.110243,0.94809 -1.124479,3.66007 -4.872743,6.107466 -3.593924,2.359201 -7.540625,2.359201 z"
       style="font-style:normal;font-variant:normal;font-weight:normal;font-stretch:normal;font-size:22.57777786px;font-family:'Anime Ace v02';-inkscape-font-specification:'Anime Ace v02';text-align:center;writing-mode:lr-tb;direction:ltr;text-anchor:middle;stroke:#ffffff;stroke-width:0.30054158;stroke-miterlimit:4;stroke-dasharray:none;stroke-opacity:1"
       id="path903"
       inkscape:connector-curvature="0" />
  </g>
  <g
     id="g928"
     transform="translate(-0.60693507,-1.2224768)">
    <path
       id="path845"
       transform="matrix(0.26458333,0,0,0.26458333,0.09997967,3.2184377)"
       d="m 448.56641,-130.44336 c -22.82004,-0.043 -43.47927,1.26609 -63.11524,4.8418 -55.61219,10.12698 -79.2938,25.41545 -87.53515,44.269529 -4.12068,9.427037 -3.32992,18.633936 -1.77149,25.060547 0.38111,1.571594 0.80467,3.002821 1.20899,4.269531 -6.35836,4.543224 -11.14882,10.111757 -14.23047,16.238281 -8.29891,16.498758 -5.18328,34.0807144 -1.05274,47.841797 -1.93123,1.495681 -3.75115,3.103438 -5.44336,4.841797 -12.76711,13.11534 -15.981,31.686199 -12.48828,52.238281 L 140.01758,80.441406 c -10.57402,0.961274 -19.19651,7.451739 -24.01953,15.199219 -4.82302,7.747475 -6.73332,16.668675 -6.64453,25.437495 0.0888,8.76883 2.15369,17.55235 7.15429,25.04102 5.0006,7.48868 14.04934,13.52344 24.53711,13.52344 h 276.7832 c 5.97914,0 6.09888,0.83829 6.48829,1.41015 0.3894,0.57187 1.46092,4.05928 0.97461,10.62891 -0.97263,13.13927 -6.97812,35.44554 -10.61524,61.94922 -3.72359,27.13363 -1.81686,50.79185 10.19531,68.06836 12.01217,17.2765 34.31256,24.78484 61.42383,20.43359 l 9.73047,-1.5664 -0.19336,-9.85352 c -1.39566,-71.1949 31.91706,-100.77634 67.97266,-124.84961 18.02778,-12.03663 36.74111,-21.94335 51.79883,-34.40039 15.05767,-12.45703 26.80523,-29.35716 25.67382,-51.22266 a 11.339717,11.339717 0 1 0 -22.64648,1.17383 c 0.71868,13.88974 -5.15139,22.37647 -17.48047,32.57617 -12.32912,10.19971 -30.77158,20.21389 -49.93945,33.01172 -36.48851,24.3623 -75.18423,61.93964 -77.53906,133.44922 -15.62865,0.8509 -24.46056,-3.46807 -30.1836,-11.69922 -6.78523,-9.7589 -9.659,-27.91984 -6.34961,-52.03515 3.39579,-24.74526 9.47719,-45.87432 10.77149,-63.35938 0.64713,-8.74253 0.39782,-17.35916 -4.85157,-25.06836 -5.24938,-7.7092 -15.07805,-11.32422 -25.23047,-11.32422 h -276.7832 c -2.80195,0 -3.85846,-0.71498 -5.67773,-3.43945 -1.81928,-2.72447 -3.29253,-7.61724 -3.34375,-12.67578 -0.0512,-5.05854 1.2919,-10.1255 3.21875,-13.2207 1.92685,-3.0952 3.55237,-4.30768 6.82812,-4.60547 L 342.08203,84.841797 a 11.339717,11.339717 0 0 0 -1.26172,-22.640625 11.339717,11.339717 0 0 0 -0.78906,0.05859 l -53.26953,4.841796 c -3.37538,-16.515921 -0.90723,-27.149331 6.11328,-34.361328 8.14421,-8.366337 26.32834,-14.397702 57.78516,-13.013672 15.31951,0.902212 16.33565,-22.2098204 0.99609,-22.6562495 -19.16905,-0.8433957 -35.43755,0.5177124 -48.74609,4.5800781 -2.32898,-10.0683288 -2.99505,-20.3403076 0.46875,-27.2265626 2.37431,-4.720292 6.34359,-8.90654 15.50976,-12.335937 9.16617,-3.429397 23.53857,-5.571384 44.43945,-4.503907 15.29742,0.994654 16.47728,-22.074392 1.15821,-22.646484 -18.95241,-0.967961 -34.03943,0.295091 -46.25977,3.591797 -0.012,-0.04825 -0.0274,-0.09627 -0.0391,-0.144531 -0.89357,-3.6849 -1.12224,-6.897265 0.50977,-10.63086 3.264,-7.467193 18.16246,-21.458943 70.81445,-31.046872 35.61112,-6.48478 77.38862,-4.88273 133.67187,-1.26953 50.71658,3.25584 83.3512,14.734262 108.75586,26.019527 25.40466,11.285265 43.83371,23.392183 66.69532,25.386719 l 0.49609,0.04492 H 729.625 c 15.33343,0.216869 15.33343,-22.894589 0,-22.677734 h -29.22461 c -15.27768,-1.407909 -32.53188,-11.603273 -59.25586,-23.47461 -26.83975,-11.922772 -62.96181,-24.494162 -116.50781,-27.931642 -28.27019,-1.81486 -53.25024,-3.20502 -76.07031,-3.24805 z"
       style="color:#000000;font-style:normal;font-variant:normal;font-weight:normal;font-stretch:normal;font-size:medium;line-height:normal;font-family:sans-serif;font-variant-ligatures:normal;font-variant-position:normal;font-variant-caps:normal;font-variant-numeric:normal;font-variant-alternates:normal;font-feature-settings:normal;text-indent:0;text-align:start;text-decoration:none;text-decoration-line:none;text-decoration-style:solid;text-decoration-color:#000000;letter-spacing:normal;word-spacing:normal;text-transform:none;writing-mode:lr-tb;direction:ltr;text-orientation:mixed;dominant-baseline:auto;baseline-shift:baseline;text-anchor:start;white-space:normal;shape-padding:0;clip-rule:nonzero;display:inline;overflow:visible;visibility:visible;opacity:1;isolation:auto;mix-blend-mode:normal;color-interpolation:sRGB;color-interpolation-filters:linearRGB;solid-color:#000000;solid-opacity:1;vector-effect:none;fill:#000000;fill-opacity:1;fill-rule:nonzero;stroke:#ffffff;stroke-width:1.88976383;stroke-linecap:round;stroke-linejoin:miter;stroke-miterlimit:4;stroke-dasharray:none;stroke-dashoffset:0;stroke-opacity:1;color-rendering:auto;image-rendering:auto;shape-rendering:auto;text-rendering:auto;enable-background:accumulate"
       inkscape:connector-curvature="0" />
    <path
       inkscape:connector-curvature="0"
       style="color:#000000;font-style:normal;font-variant:normal;font-weight:normal;font-stretch:normal;font-size:medium;line-height:normal;font-family:sans-serif;font-variant-ligatures:normal;font-variant-position:normal;font-variant-caps:normal;font-variant-numeric:normal;font-variant-alternates:normal;font-feature-settings:normal;text-indent:0;text-align:start;text-decoration:none;text-decoration-line:none;text-decoration-style:solid;text-decoration-color:#000000;letter-spacing:normal;word-spacing:normal;text-transform:none;writing-mode:lr-tb;direction:ltr;text-orientation:mixed;dominant-baseline:auto;baseline-shift:baseline;text-anchor:start;white-space:normal;shape-padding:0;clip-rule:nonzero;display:inline;overflow:visible;visibility:visible;opacity:1;isolation:auto;mix-blend-mode:normal;color-interpolation:sRGB;color-interpolation-filters:linearRGB;solid-color:#000000;solid-opacity:1;vector-effect:none;fill:#000000;fill-opacity:1;fill-rule:nonzero;stroke:#ffffff;stroke-width:0.5;stroke-linecap:round;stroke-linejoin:miter;stroke-miterlimit:4;stroke-dasharray:none;stroke-dashoffset:0;stroke-opacity:1;color-rendering:auto;image-rendering:auto;shape-rendering:auto;text-rendering:auto;enable-background:accumulate"
       d="m 17.897395,169.20632 c 6.037799,0.0114 11.503889,-0.33499 16.699239,-1.28106 14.71406,-2.67943 20.97982,-6.72451 23.16034,-11.71298 1.09027,-2.49424 0.88105,-4.93023 0.46871,-6.6306 -0.10083,-0.41582 -0.2129,-0.7945 -0.31988,-1.12965 1.68232,-1.20206 2.94979,-2.6754 3.76515,-4.29638 2.19575,-4.36529 1.37141,-9.01719 0.27853,-12.65814 0.51098,-0.39573 0.9925,-0.82112 1.44023,-1.28106 3.37796,-3.4701 4.2283,-8.38364 3.30419,-13.82138 l 32.84037,-2.98534 c 2.797706,-0.25434 5.079076,-1.97161 6.355166,-4.02146 1.27609,-2.04986 1.78152,-4.41026 1.75803,-6.73034 -0.0235,-2.32009 -0.56983,-4.644061 -1.89291,-6.625438 -1.32307,-1.98138 -3.71722,-3.578077 -6.492106,-3.578077 h -73.23222 c -1.58198,0 -1.61366,-0.221797 -1.71669,-0.373102 -0.10303,-0.151307 -0.38654,-1.074018 -0.25787,-2.812232 0.25734,-3.476432 1.8463,-9.378299 2.80862,-16.390731 0.9852,-7.179104 0.48071,-13.438674 -2.69751,-18.009753 -3.17822,-4.57107 -9.078529,-6.55766 -16.2517192,-5.40639 l -2.57452,0.41445 0.0512,2.60707 c 0.36926,18.836986 -8.44473,26.663742 -17.9844398,33.033128 -4.76985,3.184692 -9.72108,5.805845 -13.7051,9.10177 -3.98401,3.295922 -7.09222,7.767415 -6.79287,13.552665 a 3.0003001,3.0003001 0 1 0 5.99188,-0.31058 c -0.19015,-3.67499 1.36297,-5.92044 4.62504,-8.61911 3.26208,-2.698674 8.14165,-5.348259 13.2131498,-8.734351 C 0.39365477,84.06139 10.631895,74.119053 11.254945,55.198807 c 4.13508,-0.22513 6.47186,0.9176 7.98608,3.09542 1.795259,2.582039 2.555609,7.387129 1.679999,13.767635 -0.898469,6.547183 -2.507509,12.13758 -2.849959,16.763835 -0.17122,2.313128 -0.10525,4.592945 1.28365,6.63267 1.388899,2.039726 3.989399,2.9962 6.675559,2.9962 h 73.23218 c 0.741346,0 1.020886,0.189172 1.502226,0.910021 0.48136,0.720852 0.87115,2.015392 0.88471,3.353802 0.0136,1.3384 -0.34182,2.67904 -0.85163,3.49798 -0.50981,0.81893 -0.939896,1.13974 -1.806606,1.21853 l -52.91977,4.81056 a 3.0003001,3.0003001 0 0 0 0.33383,5.99033 3.0003001,3.0003001 0 0 0 0.20878,-0.0155 l 14.09423,-1.28106 c 0.89306,4.36983 0.24003,7.18326 -1.61748,9.09143 -2.15482,2.21359 -6.96604,3.80939 -15.28899,3.4432 -4.05328,-0.23871 -4.32214,5.87635 -0.26355,5.99447 5.07182,0.22315 9.37619,-0.13698 12.89741,-1.21181 0.61621,2.66391 0.79244,5.3817 -0.12403,7.20369 -0.6282,1.24891 -1.6784,2.35652 -4.10362,3.26388 -2.42522,0.90736 -6.22791,1.4741 -11.75794,1.19166 -4.04744,-0.26317 -4.35961,5.84052 -0.30644,5.99188 5.01449,0.25611 9.00627,-0.0781 12.23956,-0.95033 0.003,0.0128 0.007,0.0255 0.0103,0.0382 0.23643,0.97497 0.29693,1.8249 -0.13487,2.81275 -0.8636,1.9757 -4.80549,5.67768 -18.73633,8.21449 -9.4221,1.71576 -20.475729,1.29188 -35.3673392,0.33589 -13.4187598,-0.86144 -22.0533398,-3.89844 -28.7749898,-6.88433 -6.72165,-2.98589 -11.59767,-6.18918 -17.64647,-6.7169 l -0.13126,-0.0119 h -8.06824 c -4.05697,-0.0574 -4.05697,6.05752 0,6.00015 h 7.73235 c 4.04222,0.37251 8.60739,3.07003 15.67811,6.21099 7.10135,3.15457 16.65865,6.48075 30.8260298,7.39025 7.47982,0.48018 14.0891202,0.84799 20.1269302,0.85938 z"
       id="path924" />
  </g>
</svg>
