<?xml version="1.0" standalone="no"?>
<!DOCTYPE svg PUBLIC "-//W3C//DTD SVG 20010904//EN"
 "http://www.w3.org/TR/2001/REC-SVG-20010904/DTD/svg10.dtd">
<svg version="1.0" xmlns="http://www.w3.org/2000/svg"
 width="700.000000pt" height="700.000000pt" viewBox="0 0 700.000000 700.000000"
 preserveAspectRatio="xMidYMid meet">
<metadata>
Created by potrace 1.11, written by Peter Selinger 2001-2013
</metadata>
<g transform="translate(0.000000,700.000000) scale(0.100000,-0.100000)"
fill="#000000" stroke="none">
<path d="M3766 6968 c2 -18 8 -55 14 -83 6 -27 12 -59 14 -70 2 -11 9 -32 15
-47 9 -24 7 -30 -17 -50 -182 -155 -261 -399 -229 -700 l6 -58 -32 -1 c-18 0
-39 -2 -47 -3 -8 -2 -55 -6 -105 -10 -49 -3 -104 -8 -121 -10 -17 -3 -66 -7
-110 -11 -43 -3 -95 -8 -113 -10 -19 -3 -69 -7 -110 -10 -42 -4 -89 -8 -106
-9 -128 -13 -186 -19 -226 -21 -25 -1 -67 -5 -95 -9 -47 -5 -158 -16 -234 -21
-85 -7 -198 -16 -230 -20 -19 -2 -66 -7 -105 -10 -38 -4 -88 -11 -110 -16
-220 -56 -369 -279 -367 -549 1 -279 142 -488 363 -539 29 -7 713 -11 1984
-11 1067 0 1946 -4 1952 -8 30 -19 21 -175 -25 -417 -12 -60 -24 -121 -26
-135 -3 -14 -12 -61 -20 -105 -24 -126 -25 -133 -45 -265 -11 -69 -23 -159
-26 -200 -8 -84 -9 -299 -1 -345 2 -17 7 -50 11 -75 33 -232 151 -437 315
-550 184 -126 411 -162 718 -115 l110 17 -1 172 c0 156 6 289 19 362 40 238
86 390 164 549 l50 100 0 260 0 259 -33 -34 c-223 -236 -405 -596 -477 -942
-12 -57 -24 -121 -26 -143 -3 -22 -7 -51 -9 -64 -2 -14 -7 -66 -11 -115 -3
-50 -9 -95 -11 -100 -8 -13 -151 1 -208 20 -154 53 -243 189 -271 414 -12 99
-7 342 10 425 2 11 7 43 10 70 4 28 13 84 21 125 8 41 17 86 19 100 3 14 19
94 35 179 17 85 33 173 36 195 3 23 8 48 10 56 8 32 19 178 17 243 -4 201
-107 338 -292 390 -22 6 -739 11 -1985 12 -1072 2 -1958 6 -1967 10 -10 4 -30
32 -45 63 -24 49 -28 69 -28 142 0 73 4 93 28 143 30 61 51 77 101 82 17 2 63
6 101 9 39 4 90 9 115 11 25 3 72 8 105 10 33 3 80 8 105 10 25 2 101 9 170
15 69 6 142 13 164 15 21 3 70 7 110 10 39 3 87 7 106 10 19 2 64 7 100 10 99
8 284 24 336 30 18 2 67 6 110 10 44 4 93 8 109 10 17 1 64 5 105 9 41 4 95 9
120 11 69 7 200 18 340 30 36 3 76 7 90 10 14 2 64 6 111 10 47 3 99 8 115 10
17 2 71 6 120 10 49 3 105 11 125 16 125 32 166 182 76 277 -39 41 -93 56
-172 47 -33 -3 -87 -8 -120 -11 -33 -3 -73 -7 -90 -8 -16 -2 -75 -7 -130 -11
-55 -4 -102 -8 -105 -10 -4 -2 -130 -13 -210 -18 -23 -2 -26 2 -35 62 -6 37
-7 100 -3 148 15 171 93 269 267 338 34 13 63 24 64 23 1 0 20 5 42 10 22 6
60 14 85 17 25 3 59 9 75 11 17 3 114 7 216 9 122 2 195 7 210 15 44 23 69 53
83 101 25 82 -9 165 -80 200 -38 18 -61 20 -211 19 -92 0 -181 -2 -198 -4 -16
-2 -61 -7 -99 -10 -38 -4 -79 -12 -92 -17 -13 -4 -24 -7 -24 -5 0 2 -23 -2
-52 -10 -29 -7 -53 -12 -54 -11 -4 4 -12 59 -13 85 -1 22 -1 22 -175 22 l-173
0 3 -32z"/>
<path d="M488 4535 c-2 -2 -32 -6 -68 -9 -36 -4 -72 -9 -80 -11 -8 -2 -33 -6
-54 -10 -22 -3 -42 -8 -45 -11 -3 -3 -6 -78 -7 -167 -1 -159 -7 -273 -19 -352
-3 -22 -8 -54 -10 -72 -21 -147 -82 -340 -154 -485 l-51 -101 0 -261 0 -260
33 34 c142 149 293 394 380 615 79 202 124 408 143 655 3 47 9 89 12 94 6 10
143 1 187 -13 143 -44 230 -144 270 -313 34 -139 38 -372 10 -538 -2 -14 -13
-83 -25 -155 -12 -71 -25 -146 -30 -165 -5 -19 -11 -51 -14 -70 -3 -19 -12
-68 -20 -107 -9 -40 -18 -87 -21 -105 -3 -18 -10 -58 -15 -88 -65 -386 3 -564
250 -657 42 -15 191 -17 1995 -19 1073 -1 1955 -3 1962 -3 21 -2 60 -52 73
-94 30 -101 21 -201 -26 -283 -32 -57 -25 -54 -244 -74 -69 -6 -141 -13 -160
-15 -19 -2 -69 -6 -110 -10 -41 -4 -91 -8 -110 -10 -19 -2 -69 -6 -110 -10
-41 -4 -91 -8 -110 -10 -19 -2 -69 -6 -110 -9 -84 -7 -155 -14 -215 -20 -22
-3 -74 -8 -115 -11 -41 -4 -93 -8 -115 -11 -22 -2 -71 -6 -110 -9 -38 -3 -86
-7 -105 -10 -19 -2 -69 -7 -110 -10 -101 -8 -167 -14 -215 -20 -22 -2 -75 -7
-117 -10 -43 -4 -90 -8 -105 -10 -16 -2 -68 -6 -118 -10 -49 -4 -101 -8 -115
-10 -14 -2 -59 -6 -100 -10 -41 -3 -91 -8 -110 -10 -19 -3 -71 -7 -115 -10
-111 -8 -135 -13 -177 -41 -90 -58 -99 -172 -20 -257 34 -36 90 -50 167 -42
34 3 89 8 121 10 32 3 77 7 99 9 22 3 76 8 120 11 44 4 91 8 105 10 22 3 141
14 209 18 32 3 38 -21 40 -149 3 -165 -42 -262 -157 -341 -67 -46 -209 -96
-302 -108 -30 -3 -73 -9 -95 -12 -22 -3 -116 -6 -210 -7 -178 -2 -207 -8 -247
-53 -22 -24 -46 -92 -42 -118 10 -67 18 -88 41 -111 49 -49 81 -55 267 -55 94
1 182 3 196 5 14 3 52 7 85 10 66 7 83 10 167 30 32 7 60 11 63 8 2 -3 8 -27
11 -54 l7 -48 172 0 173 0 -4 32 c-3 18 -12 67 -21 108 -27 131 -29 119 32
180 152 149 227 396 193 641 -4 34 -5 66 -1 70 5 4 40 10 78 13 39 4 90 8 115
11 25 2 73 6 108 9 142 13 188 18 212 21 14 2 66 6 115 10 50 3 101 8 115 10
14 2 57 7 95 10 39 3 90 8 115 10 25 3 77 7 115 10 117 9 178 15 220 20 22 3
69 7 105 10 36 3 85 7 110 10 25 2 81 7 124 11 110 8 193 36 263 88 217 160
282 506 146 783 -31 65 -110 149 -173 186 -104 60 19 57 -2105 57 -1067 0
-1946 4 -1953 9 -9 5 -14 32 -15 77 -2 102 13 212 58 424 8 36 17 81 20 100 3
19 8 46 10 60 16 79 17 85 30 170 4 25 9 52 10 60 5 30 26 186 30 230 5 54 6
313 0 352 -58 435 -278 685 -655 744 -30 5 -238 12 -242 9z"/>
<path d="M2608 4365 c-2 -2 -25 -6 -53 -9 -291 -38 -592 -222 -779 -476 -100
-135 -129 -230 -95 -313 30 -74 77 -93 244 -101 280 -14 342 -17 404 -22 36
-2 66 -6 67 -7 1 -1 5 -34 9 -72 11 -127 49 -243 112 -343 18 -29 33 -54 33
-56 0 -5 -109 -33 -158 -41 -23 -4 -70 -7 -105 -7 -148 0 -244 25 -338 88 -55
37 -73 57 -131 142 -43 64 -81 92 -116 86 -43 -8 -55 -32 -54 -114 0 -194 180
-425 349 -447 193 -26 440 24 631 127 l52 28 53 -35 c68 -46 157 -88 243 -115
98 -29 317 -34 429 -8 93 21 129 33 205 67 64 30 207 122 234 152 28 31 37 26
19 -11 -22 -43 -18 -93 11 -142 35 -59 77 -96 118 -102 32 -6 40 -1 97 54 34
33 64 70 66 82 6 29 3 27 47 34 21 3 57 10 80 15 24 5 59 12 78 15 59 9 429
86 535 112 55 13 105 24 111 24 6 0 28 -42 49 -92 65 -157 121 -190 217 -129
55 35 79 68 80 109 1 31 -43 124 -92 197 -38 56 -137 240 -199 370 -49 101
-79 168 -161 358 -31 73 -94 239 -130 347 -49 146 -75 185 -131 201 -35 11
-46 10 -93 -10 -51 -21 -55 -21 -112 -6 -109 29 -424 22 -597 -13 -87 -18 -87
-18 -141 4 -109 44 -184 58 -321 58 -183 0 -242 -14 -481 -120 -7 -3 -13 11
-17 37 -10 73 -30 84 -157 85 -60 1 -110 0 -112 -1z m792 -240 c4 -3 6 -30 3
-60 -7 -69 16 -134 58 -170 38 -31 67 -31 159 0 40 14 81 25 89 25 34 -1 117
-157 141 -266 28 -126 16 -299 -29 -413 -67 -168 -244 -333 -391 -367 -19 -4
-42 -9 -50 -11 -26 -6 -174 -5 -208 1 -59 11 -141 47 -202 88 l-60 40 59 66
c75 85 131 172 173 270 28 67 33 88 33 162 0 112 -18 145 -90 165 -51 14 -273
45 -326 45 -37 0 -37 14 2 92 89 176 257 311 419 336 54 9 205 7 220 -3z
m-776 -65 l26 -10 -64 -84 c-35 -46 -81 -120 -102 -164 -21 -45 -42 -78 -47
-75 -5 3 -102 7 -216 8 -113 2 -212 3 -219 4 -23 2 17 61 92 135 100 100 211
156 356 181 89 15 144 17 174 5z m1766 -25 c0 -1 -25 -67 -56 -146 -31 -79
-66 -171 -79 -204 -27 -71 -73 -175 -77 -175 -2 0 -3 46 -4 103 -1 107 -26
222 -63 295 -15 30 -20 75 -12 112 1 3 40 7 89 8 48 2 88 4 89 5 2 3 113 4
113 2z m241 -152 c12 -32 37 -91 56 -131 18 -41 33 -76 33 -78 0 -3 9 -24 19
-47 15 -32 127 -298 158 -373 10 -26 -414 -146 -600 -169 l-37 -5 16 37 c9 21
20 49 24 63 10 32 220 568 255 651 15 35 31 74 36 87 5 12 10 22 13 22 2 0 14
-26 27 -57z m-1869 -499 c65 -22 92 -53 86 -101 -6 -45 -44 -133 -58 -133 -17
0 -71 138 -84 213 -8 42 -6 43 56 21z"/>
</g>
</svg>
